<?xml version="1.0" standalone="no"?>
<!DOCTYPE svg PUBLIC "-//W3C//DTD SVG 20010904//EN"
 "http://www.w3.org/TR/2001/REC-SVG-20010904/DTD/svg10.dtd">
<svg version="1.0" xmlns="http://www.w3.org/2000/svg"
 width="384.000000pt" height="384.000000pt" viewBox="0 0 384.000000 384.000000"
 preserveAspectRatio="xMidYMid meet">
<metadata>
Created by potrace 1.14, written by Peter Selinger 2001-2017
</metadata>
<g transform="translate(0.000000,384.000000) scale(0.100000,-0.100000)"
fill="#000000" stroke="none">
<path d="M0 1920 l0 -1920 1920 0 1920 0 0 1920 0 1920 -1920 0 -1920 0 0
-1920z m1678 303 l-3 -88 -173 -3 -173 -2 3 -133 3 -132 108 -3 c80 -2 108 -6
104 -15 -2 -7 -14 -42 -27 -79 l-22 -67 -82 -3 -81 -3 -5 -239 -5 -240 -32 1
c-18 1 -55 2 -83 2 l-50 1 0 545 0 545 260 0 261 0 -3 -87z"/>
</g>
</svg>
